<svg width="64" height="95" viewBox="0 0 64 95" fill="none" xmlns="http://www.w3.org/2000/svg">
<path d="M20.8528 92.6224C18.6959 94.8391 15.1258 94.9041 13.1356 92.5367C6.77094 84.9663 2.50222 75.8165 0.812389 66.0041C-1.19539 54.3454 0.5406 42.3504 5.77139 31.7394C11.0022 21.1284 19.459 12.4465 29.9291 6.93887C38.7411 2.30343 48.5981 0.116978 58.4788 0.554831C61.5685 0.691751 63.6912 3.56302 63.2465 6.62368C62.8018 9.68434 59.9558 11.7679 56.8635 11.7083C49.3357 11.5631 41.86 13.3178 35.1432 16.8511C26.7672 21.2572 20.0017 28.2027 15.8171 36.6915C11.6325 45.1804 10.2437 54.7764 11.8499 64.1033C13.1379 71.5825 16.2989 78.5806 20.9985 84.4631C22.9289 86.8795 23.0096 90.4058 20.8528 92.6224Z" fill="#FF7E86"/>
</svg>
