<svg
                  width="40"
                  height="90"
                  viewBox="0 0 40 90"
                  fill="none"
                  xmlns="http://www.w3.org/2000/svg"
                >
                  <path
                    d="M20.8528 87.6224C18.6959 89.8391 15.1259 89.9041 13.1356 87.5367C8.20951 81.6773 4.52379 74.8539 2.32819 67.4793C-0.40156 58.3105 -0.736942 48.5952 1.35402 39.26C3.44499 29.9248 7.89259 21.2809 14.2727 14.1526C19.4043 8.4191 25.6486 3.8199 32.6034 0.621683C35.4134 -0.670471 38.6146 0.911181 39.6198 3.83608C40.625 6.76097 39.0479 9.91595 36.2711 11.2779C31.1128 13.8081 26.4731 17.315 22.6181 21.6221C17.5141 27.3247 13.956 34.2398 12.2832 41.708C10.6104 49.1762 10.8788 56.9484 13.0626 64.2834C14.7119 69.8233 17.4124 74.9744 20.9985 79.4632C22.929 81.8795 23.0096 85.4058 20.8528 87.6224Z"
                    fill="white"
                  />
                </svg>